# xmcd CD database file
#
# Track frame offsets:
#	150
#	23810
#	47504
#	68713
#	90778
#	107210
#	139614
#	160846
#	181356
#	207544
#	230683
#	247150
#
# Disc length: 3540 seconds
#
# Revision: 0
# Processed by: cddbd v1.5.2PL0 Copyright (c) Steve Scherf et al.
# Submitted via: CDex 1.70beta2
#
DISCID=9f0dd20c
DTITLE=Ben Sidran - Groove Master Groovy Side
DYEAR=1900
DGENRE=Jazz
TTITLE0=I'm Back
TTITLE1=Jive Samba
TTITLE2=Steady Eddie
TTITLE3=Turn To The Music
TTITLE4=Mother Tongue
TTITLE5=Black Jack
TTITLE6=You Said
TTITLE7=Cryin' Blues
TTITLE8=Listen Here
TTITLE9=The Difference
TTITLE10=Relaxin' At Camarillo
TTITLE11=Mumbles
EXTD=
EXTT0=
EXTT1=
EXTT2=
EXTT3=
EXTT4=
EXTT5=
EXTT6=
EXTT7=
EXTT8=
EXTT9=
EXTT10=
EXTT11=
PLAYORDER=
